<mxfile host="app.diagrams.net" modified="2021-01-18T03:37:15.904Z" agent="5.0 (Windows NT 10.0; Win64; x64) AppleWebKit/537.36 (KHTML, like Gecko) Chrome/87.0.4280.141 Safari/537.36" etag="ENitjtzhIzbXuCmgj6dO" version="14.2.2" type="github">
  <diagram name="Page-1" id="13e1069c-82ec-6db2-03f1-153e76fe0fe0">
    <mxGraphModel dx="1422" dy="706" grid="1" gridSize="10" guides="1" tooltips="1" connect="1" arrows="1" fold="1" page="1" pageScale="1" pageWidth="1100" pageHeight="850" background="#ffffff" math="0" shadow="0">
      <root>
        <mxCell id="0" />
        <mxCell id="1" parent="0" />
        <mxCell id="7baba1c4bc27f4b0-2" value="&lt;span style=&quot;color: rgba(0 , 0 , 0 , 0) ; font-family: monospace ; font-size: 0px&quot;&gt;%3CmxGraphModel%3E%3Croot%3E%3CmxCell%20id%3D%220%22%2F%3E%3CmxCell%20id%3D%221%22%20parent%3D%220%22%2F%3E%3CmxCell%20id%3D%222%22%20value%3D%22%22%20style%3D%22html%3D1%3Bpoints%3D%5B%5D%3Bperimeter%3DorthogonalPerimeter%3Brounded%3D0%3Bshadow%3D0%3Bcomic%3D0%3BlabelBackgroundColor%3Dnone%3BstrokeWidth%3D1%3BfontFamily%3DVerdana%3BfontSize%3D12%3Balign%3Dcenter%3B%22%20vertex%3D%221%22%20parent%3D%221%22%3E%3CmxGeometry%20x%3D%22285%22%20y%3D%22180%22%20width%3D%2210%22%20height%3D%22130%22%20as%3D%22geometry%22%2F%3E%3C%2FmxCell%3E%3C%2Froot%3E%3C%2FmxGraphModel%3E&lt;/span&gt;" style="shape=umlLifeline;perimeter=lifelinePerimeter;whiteSpace=wrap;html=1;container=1;collapsible=0;recursiveResize=0;outlineConnect=0;rounded=1;shadow=0;comic=0;labelBackgroundColor=none;strokeWidth=1;fontFamily=Verdana;fontSize=12;align=center;" parent="1" vertex="1">
          <mxGeometry x="240" y="80" width="100" height="990" as="geometry" />
        </mxCell>
        <mxCell id="7baba1c4bc27f4b0-10" value="" style="html=1;points=[];perimeter=orthogonalPerimeter;rounded=0;shadow=0;comic=0;labelBackgroundColor=none;strokeWidth=1;fontFamily=Verdana;fontSize=12;align=center;" parent="7baba1c4bc27f4b0-2" vertex="1">
          <mxGeometry x="45" y="100" width="10" height="130" as="geometry" />
        </mxCell>
        <mxCell id="ywNN9TwiSCEhMfeEIrP9-24" value="" style="html=1;points=[];perimeter=orthogonalPerimeter;rounded=0;shadow=0;comic=0;labelBackgroundColor=none;strokeWidth=1;fontFamily=Verdana;fontSize=12;align=center;" parent="7baba1c4bc27f4b0-2" vertex="1">
          <mxGeometry x="45" y="250" width="10" height="130" as="geometry" />
        </mxCell>
        <mxCell id="ywNN9TwiSCEhMfeEIrP9-39" value="xfcontroller" style="text;html=1;align=center;verticalAlign=middle;resizable=0;points=[];autosize=1;" parent="7baba1c4bc27f4b0-2" vertex="1">
          <mxGeometry x="5" y="10" width="70" height="20" as="geometry" />
        </mxCell>
        <mxCell id="vKphDAY8s-6xn2Pqb3Cn-4" value="" style="html=1;points=[];perimeter=orthogonalPerimeter;rounded=0;shadow=0;comic=0;labelBackgroundColor=none;strokeWidth=1;fontFamily=Verdana;fontSize=12;align=center;" vertex="1" parent="7baba1c4bc27f4b0-2">
          <mxGeometry x="42.5" y="750" width="15" height="150" as="geometry" />
        </mxCell>
        <mxCell id="vKphDAY8s-6xn2Pqb3Cn-12" value="" style="endArrow=classic;html=1;" edge="1" parent="7baba1c4bc27f4b0-2" target="7baba1c4bc27f4b0-8">
          <mxGeometry width="50" height="50" relative="1" as="geometry">
            <mxPoint x="42.5" y="890" as="sourcePoint" />
            <mxPoint x="92.5" y="840" as="targetPoint" />
          </mxGeometry>
        </mxCell>
        <mxCell id="vKphDAY8s-6xn2Pqb3Cn-22" value="" style="html=1;points=[];perimeter=orthogonalPerimeter;rounded=0;shadow=0;comic=0;labelBackgroundColor=none;strokeWidth=1;fontFamily=Verdana;fontSize=12;align=center;" vertex="1" parent="7baba1c4bc27f4b0-2">
          <mxGeometry x="40" y="630" width="15" height="90" as="geometry" />
        </mxCell>
        <mxCell id="7baba1c4bc27f4b0-3" value="&lt;span style=&quot;color: rgba(0 , 0 , 0 , 0) ; font-family: monospace ; font-size: 0px&quot;&gt;%3CmxGraphModel%3E%3Croot%3E%3CmxCell%20id%3D%220%22%2F%3E%3CmxCell%20id%3D%221%22%20parent%3D%220%22%2F%3E%3CmxCell%20id%3D%222%22%20value%3D%22%22%20style%3D%22html%3D1%3Bpoints%3D%5B%5D%3Bperimeter%3DorthogonalPerimeter%3Brounded%3D0%3Bshadow%3D0%3Bcomic%3D0%3BlabelBackgroundColor%3Dnone%3BstrokeWidth%3D1%3BfontFamily%3DVerdana%3BfontSize%3D12%3Balign%3Dcenter%3B%22%20vertex%3D%221%22%20parent%3D%221%22%3E%3CmxGeometry%20x%3D%22455%22%20y%3D%22190%22%20width%3D%2210%22%20height%3D%22110%22%20as%3D%22geometry%22%2F%3E%3C%2FmxCell%3E%3C%2Froot%3E%3C%2FmxGraphModel%3E&lt;/span&gt;" style="shape=umlLifeline;perimeter=lifelinePerimeter;whiteSpace=wrap;html=1;container=1;collapsible=0;recursiveResize=0;outlineConnect=0;rounded=1;shadow=0;comic=0;labelBackgroundColor=none;strokeWidth=1;fontFamily=Verdana;fontSize=12;align=center;" parent="1" vertex="1">
          <mxGeometry x="400" y="80" width="120" height="990" as="geometry" />
        </mxCell>
        <mxCell id="7baba1c4bc27f4b0-13" value="" style="html=1;points=[];perimeter=orthogonalPerimeter;rounded=0;shadow=0;comic=0;labelBackgroundColor=none;strokeWidth=1;fontFamily=Verdana;fontSize=12;align=center;" parent="7baba1c4bc27f4b0-3" vertex="1">
          <mxGeometry x="55" y="110" width="10" height="110" as="geometry" />
        </mxCell>
        <mxCell id="ywNN9TwiSCEhMfeEIrP9-11" value="&lt;span style=&quot;font-family: &amp;#34;verdana&amp;#34;&quot;&gt;逻辑处理，校验保存等&lt;/span&gt;" style="text;html=1;align=center;verticalAlign=middle;resizable=0;points=[];autosize=1;" parent="7baba1c4bc27f4b0-3" vertex="1">
          <mxGeometry x="-20" y="130" width="140" height="20" as="geometry" />
        </mxCell>
        <mxCell id="ywNN9TwiSCEhMfeEIrP9-31" value="参数处理，返回结果处理" style="html=1;points=[];perimeter=orthogonalPerimeter;rounded=0;shadow=0;comic=0;labelBackgroundColor=none;strokeWidth=1;fontFamily=Verdana;fontSize=12;align=center;" parent="7baba1c4bc27f4b0-3" vertex="1">
          <mxGeometry x="55" y="260" width="10" height="110" as="geometry" />
        </mxCell>
        <mxCell id="ywNN9TwiSCEhMfeEIrP9-40" value="xfservice" style="text;html=1;align=center;verticalAlign=middle;resizable=0;points=[];autosize=1;" parent="7baba1c4bc27f4b0-3" vertex="1">
          <mxGeometry x="30" y="10" width="60" height="20" as="geometry" />
        </mxCell>
        <mxCell id="vKphDAY8s-6xn2Pqb3Cn-6" value="" style="html=1;points=[];perimeter=orthogonalPerimeter;rounded=0;shadow=0;comic=0;labelBackgroundColor=none;strokeWidth=1;fontFamily=Verdana;fontSize=12;align=center;" vertex="1" parent="7baba1c4bc27f4b0-3">
          <mxGeometry x="52.5" y="760" width="15" height="110" as="geometry" />
        </mxCell>
        <mxCell id="ywNN9TwiSCEhMfeEIrP9-82" value="" style="html=1;points=[];perimeter=orthogonalPerimeter;rounded=0;shadow=0;comic=0;labelBackgroundColor=none;strokeWidth=1;fontFamily=Verdana;fontSize=12;align=center;" parent="7baba1c4bc27f4b0-3" vertex="1">
          <mxGeometry x="50" y="625" width="15" height="90" as="geometry" />
        </mxCell>
        <mxCell id="vKphDAY8s-6xn2Pqb3Cn-28" value="" style="endArrow=classic;html=1;" edge="1" parent="7baba1c4bc27f4b0-3" target="7baba1c4bc27f4b0-2">
          <mxGeometry width="50" height="50" relative="1" as="geometry">
            <mxPoint x="40" y="715" as="sourcePoint" />
            <mxPoint x="90" y="665" as="targetPoint" />
          </mxGeometry>
        </mxCell>
        <mxCell id="7baba1c4bc27f4b0-4" value="xfmapper" style="shape=umlLifeline;perimeter=lifelinePerimeter;whiteSpace=wrap;html=1;container=1;collapsible=0;recursiveResize=0;outlineConnect=0;rounded=1;shadow=0;comic=0;labelBackgroundColor=none;strokeWidth=1;fontFamily=Verdana;fontSize=12;align=center;" parent="1" vertex="1">
          <mxGeometry x="540" y="80" width="100" height="990" as="geometry" />
        </mxCell>
        <mxCell id="7baba1c4bc27f4b0-16" value="持久化" style="html=1;points=[];perimeter=orthogonalPerimeter;rounded=0;shadow=0;comic=0;labelBackgroundColor=none;strokeWidth=1;fontFamily=Verdana;fontSize=12;align=center;" parent="7baba1c4bc27f4b0-4" vertex="1">
          <mxGeometry x="40" y="150" width="15" height="60" as="geometry" />
        </mxCell>
        <mxCell id="ywNN9TwiSCEhMfeEIrP9-33" value="" style="html=1;points=[];perimeter=orthogonalPerimeter;rounded=0;shadow=0;comic=0;labelBackgroundColor=none;strokeWidth=1;fontFamily=Verdana;fontSize=12;align=center;" parent="7baba1c4bc27f4b0-4" vertex="1">
          <mxGeometry x="45" y="285" width="15" height="60" as="geometry" />
        </mxCell>
        <mxCell id="ywNN9TwiSCEhMfeEIrP9-70" value="" style="html=1;points=[];perimeter=orthogonalPerimeter;rounded=0;shadow=0;comic=0;labelBackgroundColor=none;strokeWidth=1;fontFamily=Verdana;fontSize=12;align=center;" parent="7baba1c4bc27f4b0-4" vertex="1">
          <mxGeometry x="40" y="490" width="15" height="60" as="geometry" />
        </mxCell>
        <mxCell id="7baba1c4bc27f4b0-8" value="客户端" style="shape=umlLifeline;perimeter=lifelinePerimeter;whiteSpace=wrap;html=1;container=1;collapsible=0;recursiveResize=0;outlineConnect=0;rounded=1;shadow=0;comic=0;labelBackgroundColor=none;strokeWidth=1;fontFamily=Verdana;fontSize=12;align=center;" parent="1" vertex="1">
          <mxGeometry x="100" y="80" width="100" height="1010" as="geometry" />
        </mxCell>
        <mxCell id="7baba1c4bc27f4b0-9" value="" style="html=1;points=[];perimeter=orthogonalPerimeter;rounded=0;shadow=0;comic=0;labelBackgroundColor=none;strokeWidth=1;fontFamily=Verdana;fontSize=12;align=center;" parent="7baba1c4bc27f4b0-8" vertex="1">
          <mxGeometry x="45" y="80" width="10" height="910" as="geometry" />
        </mxCell>
        <mxCell id="7baba1c4bc27f4b0-17" value="" style="html=1;verticalAlign=bottom;endArrow=block;labelBackgroundColor=none;fontFamily=Verdana;fontSize=12;edgeStyle=elbowEdgeStyle;elbow=vertical;" parent="1" source="7baba1c4bc27f4b0-13" target="7baba1c4bc27f4b0-16" edge="1">
          <mxGeometry relative="1" as="geometry">
            <mxPoint x="510" y="220" as="sourcePoint" />
            <Array as="points">
              <mxPoint x="530" y="245" />
              <mxPoint x="530" y="270" />
              <mxPoint x="490" y="280" />
              <mxPoint x="460" y="220" />
            </Array>
          </mxGeometry>
        </mxCell>
        <mxCell id="7baba1c4bc27f4b0-11" value="post" style="html=1;verticalAlign=bottom;endArrow=block;entryX=0;entryY=0;labelBackgroundColor=none;fontFamily=Verdana;fontSize=12;edgeStyle=elbowEdgeStyle;elbow=vertical;" parent="1" source="7baba1c4bc27f4b0-9" target="7baba1c4bc27f4b0-10" edge="1">
          <mxGeometry relative="1" as="geometry">
            <mxPoint x="220" y="190" as="sourcePoint" />
          </mxGeometry>
        </mxCell>
        <mxCell id="7baba1c4bc27f4b0-14" value="" style="html=1;verticalAlign=bottom;endArrow=block;entryX=0;entryY=0;labelBackgroundColor=none;fontFamily=Verdana;fontSize=12;edgeStyle=elbowEdgeStyle;elbow=vertical;" parent="1" source="7baba1c4bc27f4b0-10" target="7baba1c4bc27f4b0-13" edge="1">
          <mxGeometry relative="1" as="geometry">
            <mxPoint x="370" y="200" as="sourcePoint" />
          </mxGeometry>
        </mxCell>
        <mxCell id="ywNN9TwiSCEhMfeEIrP9-3" value="信访Excel批量导入" style="text;html=1;align=center;verticalAlign=middle;resizable=0;points=[];autosize=1;" parent="1" vertex="1">
          <mxGeometry x="165" y="180" width="120" height="20" as="geometry" />
        </mxCell>
        <mxCell id="ywNN9TwiSCEhMfeEIrP9-18" value="" style="endArrow=classic;html=1;" parent="1" target="7baba1c4bc27f4b0-3" edge="1">
          <mxGeometry width="50" height="50" relative="1" as="geometry">
            <mxPoint x="580" y="275" as="sourcePoint" />
            <mxPoint x="530" y="250" as="targetPoint" />
          </mxGeometry>
        </mxCell>
        <mxCell id="ywNN9TwiSCEhMfeEIrP9-19" value="持久化结果" style="text;html=1;align=center;verticalAlign=middle;resizable=0;points=[];autosize=1;" parent="1" vertex="1">
          <mxGeometry x="470" y="280" width="80" height="20" as="geometry" />
        </mxCell>
        <mxCell id="ywNN9TwiSCEhMfeEIrP9-20" value="" style="endArrow=classic;html=1;exitX=-0.3;exitY=0.873;exitDx=0;exitDy=0;exitPerimeter=0;" parent="1" source="7baba1c4bc27f4b0-13" target="7baba1c4bc27f4b0-2" edge="1">
          <mxGeometry width="50" height="50" relative="1" as="geometry">
            <mxPoint x="350" y="315" as="sourcePoint" />
            <mxPoint x="400" y="265" as="targetPoint" />
          </mxGeometry>
        </mxCell>
        <mxCell id="ywNN9TwiSCEhMfeEIrP9-21" value="返回结果" style="text;html=1;align=center;verticalAlign=middle;resizable=0;points=[];autosize=1;" parent="1" vertex="1">
          <mxGeometry x="320" y="260" width="60" height="20" as="geometry" />
        </mxCell>
        <mxCell id="ywNN9TwiSCEhMfeEIrP9-22" value="" style="endArrow=classic;html=1;exitX=0.1;exitY=0.985;exitDx=0;exitDy=0;exitPerimeter=0;" parent="1" source="7baba1c4bc27f4b0-10" target="7baba1c4bc27f4b0-8" edge="1">
          <mxGeometry width="50" height="50" relative="1" as="geometry">
            <mxPoint x="205" y="300" as="sourcePoint" />
            <mxPoint x="255" y="250" as="targetPoint" />
          </mxGeometry>
        </mxCell>
        <mxCell id="ywNN9TwiSCEhMfeEIrP9-23" value="返回结果" style="text;html=1;align=center;verticalAlign=middle;resizable=0;points=[];autosize=1;" parent="1" vertex="1">
          <mxGeometry x="180" y="290" width="60" height="20" as="geometry" />
        </mxCell>
        <mxCell id="ywNN9TwiSCEhMfeEIrP9-25" value="" style="endArrow=classic;html=1;entryX=0.45;entryY=0.077;entryDx=0;entryDy=0;entryPerimeter=0;" parent="1" source="7baba1c4bc27f4b0-9" target="ywNN9TwiSCEhMfeEIrP9-24" edge="1">
          <mxGeometry width="50" height="50" relative="1" as="geometry">
            <mxPoint x="160" y="370" as="sourcePoint" />
            <mxPoint x="210" y="320" as="targetPoint" />
          </mxGeometry>
        </mxCell>
        <mxCell id="ywNN9TwiSCEhMfeEIrP9-26" value="" style="endArrow=classic;html=1;" parent="1" target="7baba1c4bc27f4b0-3" edge="1">
          <mxGeometry width="50" height="50" relative="1" as="geometry">
            <mxPoint x="300" y="370" as="sourcePoint" />
            <mxPoint x="350" y="320" as="targetPoint" />
          </mxGeometry>
        </mxCell>
        <mxCell id="ywNN9TwiSCEhMfeEIrP9-27" value="get" style="text;html=1;align=center;verticalAlign=middle;resizable=0;points=[];autosize=1;" parent="1" vertex="1">
          <mxGeometry x="195" y="330" width="30" height="20" as="geometry" />
        </mxCell>
        <mxCell id="ywNN9TwiSCEhMfeEIrP9-28" value="处理文件" style="text;html=1;align=center;verticalAlign=middle;resizable=0;points=[];autosize=1;" parent="1" vertex="1">
          <mxGeometry x="310" y="170" width="60" height="20" as="geometry" />
        </mxCell>
        <mxCell id="ywNN9TwiSCEhMfeEIrP9-29" value="参数校验" style="text;html=1;align=center;verticalAlign=middle;resizable=0;points=[];autosize=1;" parent="1" vertex="1">
          <mxGeometry x="260" y="350" width="60" height="20" as="geometry" />
        </mxCell>
        <mxCell id="ywNN9TwiSCEhMfeEIrP9-30" value="查询" style="text;html=1;align=center;verticalAlign=middle;resizable=0;points=[];autosize=1;" parent="1" vertex="1">
          <mxGeometry x="330" y="350" width="40" height="20" as="geometry" />
        </mxCell>
        <mxCell id="ywNN9TwiSCEhMfeEIrP9-32" value="" style="html=1;verticalAlign=bottom;endArrow=block;labelBackgroundColor=none;fontFamily=Verdana;fontSize=12;edgeStyle=elbowEdgeStyle;elbow=vertical;" parent="1" edge="1">
          <mxGeometry relative="1" as="geometry">
            <mxPoint x="470" y="390" as="sourcePoint" />
            <Array as="points">
              <mxPoint x="535" y="390" />
              <mxPoint x="535" y="415" />
              <mxPoint x="495" y="425" />
              <mxPoint x="465" y="365" />
            </Array>
            <mxPoint x="585" y="390" as="targetPoint" />
          </mxGeometry>
        </mxCell>
        <mxCell id="ywNN9TwiSCEhMfeEIrP9-34" value="" style="endArrow=classic;html=1;" parent="1" edge="1">
          <mxGeometry width="50" height="50" relative="1" as="geometry">
            <mxPoint x="585" y="410" as="sourcePoint" />
            <mxPoint x="464.5" y="410" as="targetPoint" />
          </mxGeometry>
        </mxCell>
        <mxCell id="ywNN9TwiSCEhMfeEIrP9-35" value="" style="endArrow=classic;html=1;exitX=-0.3;exitY=0.873;exitDx=0;exitDy=0;exitPerimeter=0;" parent="1" edge="1">
          <mxGeometry width="50" height="50" relative="1" as="geometry">
            <mxPoint x="452.5" y="424" as="sourcePoint" />
            <mxPoint x="290" y="424" as="targetPoint" />
          </mxGeometry>
        </mxCell>
        <mxCell id="ywNN9TwiSCEhMfeEIrP9-38" value="返回结果" style="edgeLabel;html=1;align=center;verticalAlign=middle;resizable=0;points=[];" parent="ywNN9TwiSCEhMfeEIrP9-35" vertex="1" connectable="0">
          <mxGeometry x="0.4092" y="-3" relative="1" as="geometry">
            <mxPoint as="offset" />
          </mxGeometry>
        </mxCell>
        <mxCell id="ywNN9TwiSCEhMfeEIrP9-36" value="" style="endArrow=classic;html=1;exitX=0.1;exitY=0.985;exitDx=0;exitDy=0;exitPerimeter=0;" parent="1" edge="1">
          <mxGeometry width="50" height="50" relative="1" as="geometry">
            <mxPoint x="286.5" y="439.99999999999994" as="sourcePoint" />
            <mxPoint x="150" y="439.99999999999994" as="targetPoint" />
          </mxGeometry>
        </mxCell>
        <mxCell id="ywNN9TwiSCEhMfeEIrP9-37" value="返回结果" style="text;html=1;align=center;verticalAlign=middle;resizable=0;points=[];autosize=1;" parent="1" vertex="1">
          <mxGeometry x="185" y="440" width="60" height="20" as="geometry" />
        </mxCell>
        <mxCell id="ywNN9TwiSCEhMfeEIrP9-41" value="信访列表查询" style="text;html=1;align=center;verticalAlign=middle;resizable=0;points=[];autosize=1;" parent="1" vertex="1">
          <mxGeometry x="170" y="350" width="90" height="20" as="geometry" />
        </mxCell>
        <mxCell id="ywNN9TwiSCEhMfeEIrP9-43" value="wtxsservice" style="shape=umlLifeline;perimeter=lifelinePerimeter;whiteSpace=wrap;html=1;container=1;collapsible=0;recursiveResize=0;outlineConnect=0;rounded=1;shadow=0;comic=0;labelBackgroundColor=none;strokeWidth=1;fontFamily=Verdana;fontSize=12;align=center;" parent="1" vertex="1">
          <mxGeometry x="850" y="80" width="100" height="730" as="geometry" />
        </mxCell>
        <mxCell id="ywNN9TwiSCEhMfeEIrP9-45" value="" style="html=1;points=[];perimeter=orthogonalPerimeter;rounded=0;shadow=0;comic=0;labelBackgroundColor=none;strokeWidth=1;fontFamily=Verdana;fontSize=12;align=center;" parent="ywNN9TwiSCEhMfeEIrP9-43" vertex="1">
          <mxGeometry x="42.5" y="430" width="15" height="60" as="geometry" />
        </mxCell>
        <mxCell id="ywNN9TwiSCEhMfeEIrP9-68" value="" style="endArrow=classic;html=1;" parent="ywNN9TwiSCEhMfeEIrP9-43" target="7baba1c4bc27f4b0-3" edge="1">
          <mxGeometry width="50" height="50" relative="1" as="geometry">
            <mxPoint x="42.5" y="480" as="sourcePoint" />
            <mxPoint x="92.5" y="430" as="targetPoint" />
          </mxGeometry>
        </mxCell>
        <mxCell id="ywNN9TwiSCEhMfeEIrP9-47" value="" style="html=1;points=[];perimeter=orthogonalPerimeter;rounded=0;shadow=0;comic=0;labelBackgroundColor=none;strokeWidth=1;fontFamily=Verdana;fontSize=12;align=center;" parent="1" vertex="1">
          <mxGeometry x="285" y="480" width="10" height="210" as="geometry" />
        </mxCell>
        <mxCell id="ywNN9TwiSCEhMfeEIrP9-48" value="" style="html=1;points=[];perimeter=orthogonalPerimeter;rounded=0;shadow=0;comic=0;labelBackgroundColor=none;strokeWidth=1;fontFamily=Verdana;fontSize=12;align=center;" parent="1" vertex="1">
          <mxGeometry x="455" y="490" width="10" height="190" as="geometry" />
        </mxCell>
        <mxCell id="ywNN9TwiSCEhMfeEIrP9-50" value="" style="endArrow=classic;html=1;" parent="1" edge="1">
          <mxGeometry width="50" height="50" relative="1" as="geometry">
            <mxPoint x="300" y="520" as="sourcePoint" />
            <mxPoint x="459.5" y="520" as="targetPoint" />
          </mxGeometry>
        </mxCell>
        <mxCell id="ywNN9TwiSCEhMfeEIrP9-51" value="get" style="text;html=1;align=center;verticalAlign=middle;resizable=0;points=[];autosize=1;" parent="1" vertex="1">
          <mxGeometry x="195" y="480" width="30" height="20" as="geometry" />
        </mxCell>
        <mxCell id="ywNN9TwiSCEhMfeEIrP9-52" value="参数校验" style="text;html=1;align=center;verticalAlign=middle;resizable=0;points=[];autosize=1;" parent="1" vertex="1">
          <mxGeometry x="260" y="500" width="60" height="20" as="geometry" />
        </mxCell>
        <mxCell id="ywNN9TwiSCEhMfeEIrP9-53" value="查询" style="text;html=1;align=center;verticalAlign=middle;resizable=0;points=[];autosize=1;" parent="1" vertex="1">
          <mxGeometry x="330" y="500" width="40" height="20" as="geometry" />
        </mxCell>
        <mxCell id="ywNN9TwiSCEhMfeEIrP9-54" value="" style="html=1;verticalAlign=bottom;endArrow=block;labelBackgroundColor=none;fontFamily=Verdana;fontSize=12;edgeStyle=elbowEdgeStyle;elbow=vertical;" parent="1" edge="1">
          <mxGeometry relative="1" as="geometry">
            <mxPoint x="465" y="589.5" as="sourcePoint" />
            <Array as="points">
              <mxPoint x="530" y="589.5" />
              <mxPoint x="530" y="614.5" />
              <mxPoint x="490" y="624.5" />
              <mxPoint x="460" y="564.5" />
            </Array>
            <mxPoint x="580" y="589.5" as="targetPoint" />
          </mxGeometry>
        </mxCell>
        <mxCell id="ywNN9TwiSCEhMfeEIrP9-55" value="" style="endArrow=classic;html=1;" parent="1" edge="1">
          <mxGeometry width="50" height="50" relative="1" as="geometry">
            <mxPoint x="585.5" y="620" as="sourcePoint" />
            <mxPoint x="465" y="620" as="targetPoint" />
          </mxGeometry>
        </mxCell>
        <mxCell id="ywNN9TwiSCEhMfeEIrP9-58" value="返回结果" style="text;html=1;align=center;verticalAlign=middle;resizable=0;points=[];autosize=1;" parent="1" vertex="1">
          <mxGeometry x="190" y="670" width="60" height="20" as="geometry" />
        </mxCell>
        <mxCell id="ywNN9TwiSCEhMfeEIrP9-59" value="单个信访查看" style="text;html=1;align=center;verticalAlign=middle;resizable=0;points=[];autosize=1;" parent="1" vertex="1">
          <mxGeometry x="170" y="500" width="90" height="20" as="geometry" />
        </mxCell>
        <mxCell id="ywNN9TwiSCEhMfeEIrP9-63" value="" style="endArrow=classic;html=1;" parent="1" target="7baba1c4bc27f4b0-2" edge="1">
          <mxGeometry width="50" height="50" relative="1" as="geometry">
            <mxPoint x="150" y="500" as="sourcePoint" />
            <mxPoint x="200" y="450" as="targetPoint" />
          </mxGeometry>
        </mxCell>
        <mxCell id="ywNN9TwiSCEhMfeEIrP9-65" value="" style="endArrow=classic;html=1;" parent="1" target="ywNN9TwiSCEhMfeEIrP9-43" edge="1">
          <mxGeometry width="50" height="50" relative="1" as="geometry">
            <mxPoint x="465" y="530" as="sourcePoint" />
            <mxPoint x="515" y="480" as="targetPoint" />
          </mxGeometry>
        </mxCell>
        <mxCell id="ywNN9TwiSCEhMfeEIrP9-69" value="查询问题线索" style="text;html=1;align=center;verticalAlign=middle;resizable=0;points=[];autosize=1;" parent="1" vertex="1">
          <mxGeometry x="485" y="510" width="90" height="20" as="geometry" />
        </mxCell>
        <mxCell id="ywNN9TwiSCEhMfeEIrP9-71" value="查询单个信访情况" style="text;html=1;align=center;verticalAlign=middle;resizable=0;points=[];autosize=1;" parent="1" vertex="1">
          <mxGeometry x="435" y="570" width="110" height="20" as="geometry" />
        </mxCell>
        <mxCell id="ywNN9TwiSCEhMfeEIrP9-72" value="返回结果" style="text;html=1;align=center;verticalAlign=middle;resizable=0;points=[];autosize=1;" parent="1" vertex="1">
          <mxGeometry x="515" y="540" width="60" height="20" as="geometry" />
        </mxCell>
        <mxCell id="ywNN9TwiSCEhMfeEIrP9-73" value="返回结果" style="text;html=1;align=center;verticalAlign=middle;resizable=0;points=[];autosize=1;" parent="1" vertex="1">
          <mxGeometry x="470" y="600" width="60" height="20" as="geometry" />
        </mxCell>
        <mxCell id="ywNN9TwiSCEhMfeEIrP9-74" value="综合处理" style="text;html=1;align=center;verticalAlign=middle;resizable=0;points=[];autosize=1;" parent="1" vertex="1">
          <mxGeometry x="410" y="630" width="60" height="20" as="geometry" />
        </mxCell>
        <mxCell id="ywNN9TwiSCEhMfeEIrP9-75" value="" style="endArrow=classic;html=1;" parent="1" target="7baba1c4bc27f4b0-2" edge="1">
          <mxGeometry width="50" height="50" relative="1" as="geometry">
            <mxPoint x="455" y="660" as="sourcePoint" />
            <mxPoint x="505" y="610" as="targetPoint" />
          </mxGeometry>
        </mxCell>
        <mxCell id="ywNN9TwiSCEhMfeEIrP9-76" value="" style="endArrow=classic;html=1;" parent="1" edge="1">
          <mxGeometry width="50" height="50" relative="1" as="geometry">
            <mxPoint x="292.75" y="690" as="sourcePoint" />
            <mxPoint x="160" y="690" as="targetPoint" />
          </mxGeometry>
        </mxCell>
        <mxCell id="ywNN9TwiSCEhMfeEIrP9-77" value="返回查询结果" style="text;html=1;align=center;verticalAlign=middle;resizable=0;points=[];autosize=1;" parent="1" vertex="1">
          <mxGeometry x="305" y="630" width="90" height="20" as="geometry" />
        </mxCell>
        <mxCell id="ywNN9TwiSCEhMfeEIrP9-78" value="wtxscontroller" style="shape=umlLifeline;perimeter=lifelinePerimeter;whiteSpace=wrap;html=1;container=1;collapsible=0;recursiveResize=0;outlineConnect=0;rounded=1;shadow=0;comic=0;labelBackgroundColor=none;strokeWidth=1;fontFamily=Verdana;fontSize=12;align=center;" parent="1" vertex="1">
          <mxGeometry x="690" y="80" width="100" height="990" as="geometry" />
        </mxCell>
        <mxCell id="ywNN9TwiSCEhMfeEIrP9-81" value="" style="endArrow=classic;html=1;exitX=0.9;exitY=0.605;exitDx=0;exitDy=0;exitPerimeter=0;entryX=-0.133;entryY=0.033;entryDx=0;entryDy=0;entryPerimeter=0;" parent="1" source="7baba1c4bc27f4b0-9" target="vKphDAY8s-6xn2Pqb3Cn-22" edge="1">
          <mxGeometry width="50" height="50" relative="1" as="geometry">
            <mxPoint x="520" y="750" as="sourcePoint" />
            <mxPoint x="570" y="700" as="targetPoint" />
          </mxGeometry>
        </mxCell>
        <mxCell id="ywNN9TwiSCEhMfeEIrP9-83" value="post&amp;nbsp; &amp;nbsp;增加问题线索" style="text;html=1;align=center;verticalAlign=middle;resizable=0;points=[];autosize=1;" parent="1" vertex="1">
          <mxGeometry x="160" y="720" width="120" height="20" as="geometry" />
        </mxCell>
        <mxCell id="ywNN9TwiSCEhMfeEIrP9-84" value="" style="html=1;points=[];perimeter=orthogonalPerimeter;rounded=0;shadow=0;comic=0;labelBackgroundColor=none;strokeWidth=1;fontFamily=Verdana;fontSize=12;align=center;" parent="1" vertex="1">
          <mxGeometry x="892.5" y="720" width="15" height="60" as="geometry" />
        </mxCell>
        <mxCell id="ywNN9TwiSCEhMfeEIrP9-86" value="" style="endArrow=classic;html=1;exitX=-0.1;exitY=0.617;exitDx=0;exitDy=0;exitPerimeter=0;" parent="1" edge="1" source="ywNN9TwiSCEhMfeEIrP9-84">
          <mxGeometry width="50" height="50" relative="1" as="geometry">
            <mxPoint x="892.5" y="770" as="sourcePoint" />
            <mxPoint x="460" y="760" as="targetPoint" />
          </mxGeometry>
        </mxCell>
        <mxCell id="ywNN9TwiSCEhMfeEIrP9-88" value="校验新增" style="text;html=1;align=center;verticalAlign=middle;resizable=0;points=[];autosize=1;" parent="1" vertex="1">
          <mxGeometry x="760" y="670" width="60" height="20" as="geometry" />
        </mxCell>
        <mxCell id="ywNN9TwiSCEhMfeEIrP9-89" value="返回新增结果" style="text;html=1;align=center;verticalAlign=middle;resizable=0;points=[];autosize=1;" parent="1" vertex="1">
          <mxGeometry x="775" y="750" width="90" height="20" as="geometry" />
        </mxCell>
        <mxCell id="ywNN9TwiSCEhMfeEIrP9-90" value="返回新增结果" style="text;html=1;align=center;verticalAlign=middle;resizable=0;points=[];autosize=1;" parent="1" vertex="1">
          <mxGeometry x="310" y="780" width="90" height="20" as="geometry" />
        </mxCell>
        <mxCell id="vKphDAY8s-6xn2Pqb3Cn-1" value="fileservice" style="shape=umlLifeline;perimeter=lifelinePerimeter;whiteSpace=wrap;html=1;container=1;collapsible=0;recursiveResize=0;outlineConnect=0;rounded=1;shadow=0;comic=0;labelBackgroundColor=none;strokeWidth=1;fontFamily=Verdana;fontSize=12;align=center;" vertex="1" parent="1">
          <mxGeometry x="980" y="80" width="100" height="990" as="geometry" />
        </mxCell>
        <mxCell id="vKphDAY8s-6xn2Pqb3Cn-2" value="" style="html=1;points=[];perimeter=orthogonalPerimeter;rounded=0;shadow=0;comic=0;labelBackgroundColor=none;strokeWidth=1;fontFamily=Verdana;fontSize=12;align=center;" vertex="1" parent="vKphDAY8s-6xn2Pqb3Cn-1">
          <mxGeometry x="42.5" y="790" width="15" height="60" as="geometry" />
        </mxCell>
        <mxCell id="vKphDAY8s-6xn2Pqb3Cn-5" value="" style="endArrow=classic;html=1;" edge="1" parent="1" target="7baba1c4bc27f4b0-2">
          <mxGeometry width="50" height="50" relative="1" as="geometry">
            <mxPoint x="150" y="850" as="sourcePoint" />
            <mxPoint x="200" y="800" as="targetPoint" />
          </mxGeometry>
        </mxCell>
        <mxCell id="vKphDAY8s-6xn2Pqb3Cn-7" value="" style="endArrow=classic;html=1;" edge="1" parent="1" target="7baba1c4bc27f4b0-3">
          <mxGeometry width="50" height="50" relative="1" as="geometry">
            <mxPoint x="295" y="870" as="sourcePoint" />
            <mxPoint x="345" y="820" as="targetPoint" />
          </mxGeometry>
        </mxCell>
        <mxCell id="vKphDAY8s-6xn2Pqb3Cn-9" value="" style="endArrow=classic;html=1;" edge="1" parent="1" target="vKphDAY8s-6xn2Pqb3Cn-1">
          <mxGeometry width="50" height="50" relative="1" as="geometry">
            <mxPoint x="470" y="890" as="sourcePoint" />
            <mxPoint x="520" y="840" as="targetPoint" />
          </mxGeometry>
        </mxCell>
        <mxCell id="vKphDAY8s-6xn2Pqb3Cn-10" value="" style="endArrow=classic;html=1;" edge="1" parent="1" target="7baba1c4bc27f4b0-3">
          <mxGeometry width="50" height="50" relative="1" as="geometry">
            <mxPoint x="1020" y="920" as="sourcePoint" />
            <mxPoint x="1070" y="870" as="targetPoint" />
          </mxGeometry>
        </mxCell>
        <mxCell id="vKphDAY8s-6xn2Pqb3Cn-11" value="" style="endArrow=classic;html=1;" edge="1" parent="1" target="vKphDAY8s-6xn2Pqb3Cn-4">
          <mxGeometry width="50" height="50" relative="1" as="geometry">
            <mxPoint x="450" y="940" as="sourcePoint" />
            <mxPoint x="500" y="890" as="targetPoint" />
          </mxGeometry>
        </mxCell>
        <mxCell id="vKphDAY8s-6xn2Pqb3Cn-13" value="材料处理" style="text;html=1;align=center;verticalAlign=middle;resizable=0;points=[];autosize=1;" vertex="1" parent="1">
          <mxGeometry x="180" y="830" width="60" height="20" as="geometry" />
        </mxCell>
        <mxCell id="vKphDAY8s-6xn2Pqb3Cn-14" value="材料处理" style="text;html=1;align=center;verticalAlign=middle;resizable=0;points=[];autosize=1;" vertex="1" parent="1">
          <mxGeometry x="330" y="850" width="60" height="20" as="geometry" />
        </mxCell>
        <mxCell id="vKphDAY8s-6xn2Pqb3Cn-15" value="获取、保存、删除材料" style="text;html=1;align=center;verticalAlign=middle;resizable=0;points=[];autosize=1;" vertex="1" parent="1">
          <mxGeometry x="540" y="870" width="140" height="20" as="geometry" />
        </mxCell>
        <mxCell id="vKphDAY8s-6xn2Pqb3Cn-16" value="返回结果" style="text;html=1;align=center;verticalAlign=middle;resizable=0;points=[];autosize=1;" vertex="1" parent="1">
          <mxGeometry x="540" y="920" width="60" height="20" as="geometry" />
        </mxCell>
        <mxCell id="vKphDAY8s-6xn2Pqb3Cn-17" value="逻辑处理" style="text;html=1;align=center;verticalAlign=middle;resizable=0;points=[];autosize=1;" vertex="1" parent="1">
          <mxGeometry x="400" y="890" width="60" height="20" as="geometry" />
        </mxCell>
        <mxCell id="vKphDAY8s-6xn2Pqb3Cn-18" value="返回结果" style="text;html=1;align=center;verticalAlign=middle;resizable=0;points=[];autosize=1;" vertex="1" parent="1">
          <mxGeometry x="330" y="920" width="60" height="20" as="geometry" />
        </mxCell>
        <mxCell id="vKphDAY8s-6xn2Pqb3Cn-19" value="返回结果" style="text;html=1;align=center;verticalAlign=middle;resizable=0;points=[];autosize=1;" vertex="1" parent="1">
          <mxGeometry x="190" y="950" width="60" height="20" as="geometry" />
        </mxCell>
        <mxCell id="vKphDAY8s-6xn2Pqb3Cn-25" value="" style="endArrow=classic;html=1;" edge="1" parent="1" target="7baba1c4bc27f4b0-3">
          <mxGeometry width="50" height="50" relative="1" as="geometry">
            <mxPoint x="295" y="730" as="sourcePoint" />
            <mxPoint x="345" y="680" as="targetPoint" />
          </mxGeometry>
        </mxCell>
        <mxCell id="vKphDAY8s-6xn2Pqb3Cn-26" value="" style="endArrow=classic;html=1;" edge="1" parent="1" target="ywNN9TwiSCEhMfeEIrP9-43">
          <mxGeometry width="50" height="50" relative="1" as="geometry">
            <mxPoint x="465" y="740" as="sourcePoint" />
            <mxPoint x="515" y="690" as="targetPoint" />
          </mxGeometry>
        </mxCell>
        <mxCell id="vKphDAY8s-6xn2Pqb3Cn-27" value="新增问题线索" style="text;html=1;align=center;verticalAlign=middle;resizable=0;points=[];autosize=1;" vertex="1" parent="1">
          <mxGeometry x="630" y="720" width="90" height="20" as="geometry" />
        </mxCell>
        <mxCell id="vKphDAY8s-6xn2Pqb3Cn-29" value="更新问题线索数" style="text;html=1;align=center;verticalAlign=middle;resizable=0;points=[];autosize=1;" vertex="1" parent="1">
          <mxGeometry x="420" y="770" width="100" height="20" as="geometry" />
        </mxCell>
      </root>
    </mxGraphModel>
  </diagram>
</mxfile>
